# xmcd
#
# Track frame offsets: 
#        150
#        16854
#        36115
#        55222
#        70113
#        88847
#        106944
#        121890
#        142069
#        155826
#        174747
#        193276
#        216858
#        272878
#
# Disc length: 4416 seconds
#
# Revision: 2
# Processed by: cddbd v1.5.2PL0 Copyright (c) Steve Scherf et al.
# Submitted via: ExactAudioCopy v0.99pb5
#
DISCID=d2113e0e
DTITLE=Fintelligens - Tän Tahtiin
DYEAR=2001
DGENRE=Rap
TTITLE0=Nyt On
TTITLE1=Kaks Jannuu
TTITLE2=Mitä Tapahtuu (feat. Jussi Valuutta)
TTITLE3=Jos Mahdollista
TTITLE4=Tän Tahtiin (feat. Jussi Valuutta)
TTITLE5=Millast Tää On
TTITLE6=Pää Pystyyn
TTITLE7=Ei Koskaan (feat. Trilogia)
TTITLE8=Heruuks?
TTITLE9=Mist Sä Digaat (feat. Ääretön)
TTITLE10=Kuka Pelkää Kuolemaa (feat. Tasapaino)
TTITLE11=7 Veljestä III (feat. Kapasiteettiyksikkö, Jussi Valuutta and A
TTITLE11=vain)
TTITLE12=Mist Tuulee (feat. Peewee) - Todellaki (feat. Clemens and Tjes 
TTITLE12=Boogie)
TTITLE13=Data
EXTD=
EXTT0=
EXTT1=
EXTT2=
EXTT3=
EXTT4=
EXTT5=
EXTT6=
EXTT7=
EXTT8=
EXTT9=
EXTT10=
EXTT11=
EXTT12=
EXTT13=
PLAYORDER=
